<?xml version="1.0" encoding="utf-8"?>
<!-- Generator: Adobe Illustrator 22.1.0, SVG Export Plug-In . SVG Version: 6.00 Build 0)  -->
<svg version="1.1" id="Ebene_2_1_" xmlns="http://www.w3.org/2000/svg" xmlns:xlink="http://www.w3.org/1999/xlink" x="0px" y="0px"
	 viewBox="0 0 472.1 417" style="enable-background:new 0 0 472.1 417;" xml:space="preserve">
<style type="text/css">
	.st0{fill:#FFFFFF;}
	.st1{font-family:'ArialMT';}
	.st2{font-size:53.0236px;}
	.st3{font-size:33.0311px;}
	.st4{letter-spacing:1;}
	.st5{font-family:'Arial-BoldMT';}
	.st6{letter-spacing:2;}
</style>
<title>FTC-Logo-Vectorgrafik-alles</title>
<path class="st0" d="M103.5,34.7c12.7,0.1,21.9,12.1,21.9,23.9c0,11.6-9,23.2-21.1,23.6c-12.8,0.5-23-11.5-22.9-23.9
	C81.3,46.5,90.9,34.6,103.5,34.7z"/>
<path class="st0" d="M163.1,103.8c0.6-1.4-16.2-14.9-38.7-16.1c-16.3-0.9-28.8,5.1-36.9,9.2c-32.6,16.3-45.7,46.4-48.2,52.4
	c-5.9,14.6-8.5,30.4-7.7,46.2c2.7,58.1,49.3,104.8,51.2,103.6c0.3-0.3-1.1-2-6.5-13.7c-18.1-38.9-29.7-63.9-28-93.8
	c1-16.3,5.7-32.2,13.7-46.4c4.4-8,15.4-26.9,37.8-38.7c5.5-3,15.4-8,28.9-9C148.7,96.2,162.6,105.1,163.1,103.8z"/>
<path class="st0" d="M180.6,125.6c12.6,0.2,22,12.2,21.9,24.3c-0.1,12.3-10.1,23.9-22.3,23.9c-13.3-0.1-23.4-14-21.9-27
	C159.6,136.1,168.8,125.5,180.6,125.6z"/>
<path class="st0" d="M107.1,166.7c3.9,4.9,15.8,18.3,35.6,22.3c8.5,1.7,17.3,1.5,25.8-0.3c7-1.4,15.4-3.1,22.7-9.7
	c4.9-4.4,6.1-8.3,7-7.8c2.3,1-2.2,23-14.4,43.8c-4.5,7.6-8.6,12.6-13.3,18.3c-13,15.9-20.2,19.9-36.8,36.4
	c-14.4,14.3-21.6,21.5-28.6,32.5c-6,9.6-14.4,23-16,41.5c-0.6,7.2-0.2,14-1.2,14.1c-1.3,0.2-4.4-10.3-4.7-20.8
	c-0.4-14.5,4.8-25.5,10.2-36.4c6.8-13.7,14.2-22.5,24.3-34.8c16.3-20,24.6-29.9,27.3-32.8c3.2-3.5,7.6-8.1,10.3-15.4
	c1.6-4.8,2.7-9.6,3.7-14.5l0,0c0,0-6.7-0.4-9-0.6c-6.7-0.7-13.1-2.6-19-5.7c-4.4-2.5-8.5-5.7-12-9.4s-6.3-7.9-8.5-12.4
	C109,172.1,107.9,169.5,107.1,166.7z"/>
<text transform="matrix(1 0 0 1 114.458 299.5283)" class="st0 st1 st2">   </text>
<text transform="matrix(1 0 0 1 150.8877 299.5283)" class="st0 st1 st3"> </text>
<text transform="matrix(1 0 0 1 158.4502 299.5283)" class="st0 st1 st2">F</text>
<text transform="matrix(1 0 0 1 185.7095 299.5283)" class="st0 st1 st2">l</text>
<text transform="matrix(1 0 0 1 197.0703 299.5283)" class="st0 st1 st2">e</text>
<text transform="matrix(1 0 0 1 225.0254 299.5283)" class="st0 st1 st2">n</text>
<text transform="matrix(1 0 0 1 253.6494 299.5283)" class="st0 st1 st2">s</text>
<text transform="matrix(1 0 0 1 280.1348 299.5283)" class="st0 st1 st2">b</text>
<text transform="matrix(1 0 0 1 308.4111 299.5283)" class="st0 st1 st2">u</text>
<text transform="matrix(1 0 0 1 336.1748 299.5283)" class="st0 st1 st2 st4">r</text>
<text transform="matrix(1 0 0 1 359.8271 299.5283)" class="st0 st1 st2">g</text>
<text transform="matrix(1 0 0 1 388.2246 299.5283)" class="st0 st1 st2">e</text>
<text transform="matrix(1 0 0 1 416.0146 299.5283)" class="st0 st1 st2">r</text>
<text transform="matrix(1 0 0 1 103.2188 363.1562)" class="st0 st5 st2 st6"> </text>
<text transform="matrix(1 0 0 1 120.082 363.1562)" class="st0 st5 st2">T</text>
<text transform="matrix(1 0 0 1 145.9419 363.1562)" class="st0 st5 st2">a</text>
<text transform="matrix(1 0 0 1 176 363.1562)" class="st0 st5 st2 st4">n</text>
<text transform="matrix(1 0 0 1 207.0493 363.1562)" class="st0 st5 st2 st4">z</text>
<text transform="matrix(1 0 0 1 232.5962 363.1562)" class="st0 st5 st2 st4">c</text>
<text transform="matrix(1 0 0 1 261.4199 363.1562)" class="st0 st5 st2 st4">l</text>
<text transform="matrix(1 0 0 1 275.6406 363.1562)" class="st0 st5 st2">u</text>
<text transform="matrix(1 0 0 1 305.9775 363.1562)" class="st0 st5 st2 st6">b </text>
<text transform="matrix(1 0 0 1 354.4805 363.1562)" class="st0 st5 st2 st4">e</text>
<text transform="matrix(1 0 0 1 383.7568 363.1562)" class="st0 st5 st2">.V</text>
<text transform="matrix(1 0 0 1 424.7412 363.1562)" class="st0 st5 st2 st6">.</text>
</svg>
